<?xml version="1.0" encoding="utf-8"?>
<!-- Generator: Adobe Illustrator 24.3.0, SVG Export Plug-In . SVG Version: 6.00 Build 0)  -->
<svg version="1.1" id="Слой_1" xmlns="http://www.w3.org/2000/svg" xmlns:xlink="http://www.w3.org/1999/xlink" x="0px" y="0px"
	 viewBox="0 0 256 256" style="enable-background:new 0 0 256 256;" xml:space="preserve">
<g>
	<path d="M128.3,43.9l81.6,77.2h-7h-15v15v78.2c0,1.8-1.4,3.2-3.2,3.2H71.9c-1.1,0-1.8-0.5-2.2-0.9c-0.4-0.4-0.9-1.2-0.9-2.3v-78.1
		v-15h-15h-7L128.3,43.9 M128.3,26c-1.8,0-3.6,0.7-5.1,2L17.4,128.3c-3,2.8-1,7.9,3.1,7.9h33.2v78.1c0,10,8.1,18.2,18.2,18.2
		c0,0,0,0,0,0h112.8c10,0,18.2-8.1,18.2-18.2v0v-78.1h33.2c4.1,0,6.1-5,3.1-7.9L133.4,28C131.9,26.7,130.1,26,128.3,26L128.3,26z"/>
</g>
</svg>
